<svg xmlns="http://www.w3.org/2000/svg" viewBox="0 0 500 500" preserveAspectRatio="xMidYMid meet"><path fill="#4c0705" d="M200 115c2.5.125 2.5.125 5 1a70 70 0 0 1 1 4q1.99.544 4 1v3h2c0 3 0 3-1.285 4.316-3.113 2.183-5.727 3.847-9.465 4.684-3.433.704-3.433.704-5.187 3.625L195 139c14.733 5.58 30.39 6 46 6l1.938-2.562c.68-.805 1.36-1.61 2.062-2.438 2.063.125 2.063.125 4 1l3 1-.301 2.073L252 146c2.752.19 5.094.106 7.82-.16l2.456-.198q2.595-.215 5.19-.457c2.597-.242 5.196-.453 7.796-.66C289.83 143.383 289.83 143.383 304 140v-2l-1.937-.437L300 137c-1-3-1-3 0-6 2.5-.5 2.5-.5 5 0 .813 2.5.813 2.5 1 5l1.688-1.125c2.312-.875 2.312-.875 5.25-.562L315 136c-.45 3.213-1.678 6.054-3 9l-.969 2.262L310 149l-2.437.438L305 150l-1.437 2.5c-1.563 2.5-1.563 2.5-4.25 3.313-3.78.213-7.529.273-11.313.187l.5 1.813c.557 2.436.5 4.7.5 7.187l1.723-.5c2.34-.514 4.326-.566 6.714-.5 3.333.044 6.315-.162 9.563-1-.875 5.75-.875 5.75-2 8-2.895.063-5.74-.136-8.629-.32L294 171l.035 2.008L294 175l-3.035-.078L288 175c-.315 2.366-.315 2.366.563 5.25 1.25 5.587 1.705 10.802 1.8 16.547L291 199c2.537.234 2.537.234 5 0-.187 2.438-.187 2.438-.598 4.07-.475 2.282-.523 4.413-.527 6.743l-.008 2.332c-.07 1.87-.07 1.87 1.133 2.855.072 2.588-.004 5.162-.062 7.75-.197 2.22-.197 2.22 1.062 3.25.072 2.328-.004 4.64-.062 6.969-.17 2.027-.17 2.027 1.062 3.031.263 2.34.468 4.653.625 7l.156 1.984c.118 1.67.173 3.343.219 5.016-2.213 2.213-6.325 2.004-9.331 2.154-1.747-.091-1.747-.091-4.669-1.154-1.516-4.706-1.28-9.108-1.038-14.003.049-2.58-.393-4.974-.9-7.497-.273-2.059-.273-2.059-.062-3.5 2.938-.562 2.938-.562 6 0l-1-1-2.562.5L283 225c-.778-3.086-.782-5.915 0-9 2.5-.562 2.5-.562 5 0l-1-1-2.508.363L282 215c-.621-2.474-.835-4.306-.875-6.812l-.102-1.948c-.127-3.065 0-5.307.977-8.24-.394-2.638-.394-2.638-1-5l-2 1-1.375-1c-1.594-1.205-1.594-1.205-3.625-.812-2.097.686-2.097.686-3.5 2.437C269 196 269 196 266.938 196c-2.727-1.407-2.951-3.18-3.938-6l-2-1c-.375-2-.375-2 0-4 2-.625 2-.625 4-1v-2c2.938-.75 2.938-.75 6-1l1 2-1 3h2l1 2 1-3 2.528-.285L280 184c1.095-4.583.654-8.604-1-13-3.703-2.2-7.638-2.028-11.84-2.008q-1.807-.043-3.613-.095c-2.53-.055-5.054-.06-7.584-.031-2.607.023-5.192-.032-7.796-.164-11.93-.848-11.93-.848-23.167 2.298-3.52 5.604-2.826 12.542-2.132 18.879C223 192 223 192 222 194h2c.868 3.109 1.37 5.155.05 8.168-1.417 3.821-1.471 7.412-1.613 11.457q-.09 2.27-.19 4.54l-.073 2.013C222 222 222 222 221 225c-1.594.328-1.594.328-3.5.25-.63-.015-1.258-.03-1.906-.047C214 225 214 225 213 224l-2.625.5L208 224c-.496-3.188-.233-6.014 1-9 3.063.063 3.063.063 6 1v-2l-2.96.344L209 214c-.621-2.805-.751-4.693-.625-7.5l-.02-2.168c.043-2.05.043-2.05.645-5.332l1.974.13L213 199c.834-2.353.834-2.353 1.012-5.363l.357-3.377.319-3.572c.227-2.31.463-4.618.699-6.926l.288-3.127C216 174 216 174 217 171c-2.747-.386-5.29-.697-8 0-.274 3.09-.274 3.09.055 5.258L209 178c-2.562 1.688-2.562 1.688-5 3 .066 2.183.066 2.183 1 4h-2v2l-1.863-.437-2.45-.563-2.425-.562c-2.369-.533-2.369-.533-5.262-.438-1.027-1.566-1.027-1.566-1.937-3.562-.949-1.909-.949-1.909-2.063-3.438-2.223-.257-2.223-.257-4 1l-1 2c-3-.187-3-.187-6-1-1-3-1-3-1-5 1.443-2.886 3.543-3.276 6.504-4.29L183 170v-2c.576-3.551 1.424-6.755 3-10h2v-2l-3-1c-.062-2.562-.062-2.562 1-5 3-.187 3-.187 6 0l1-2-2.937-.062L187 147c-.812-3.187-.812-3.187-.902-5.094-.042-2.15-.042-2.15-.973-5.094L185 134c2.375-2.25 2.375-2.25 5-4l1-2c2.526-1.652 4.806-2.181 7.75-2.562L202 125v-1l-3-1c-1.312-1.937-1.312-1.937-2-4l2-2zm-5 31v1c2.5.167 2.5.167 5 0v-1c-2.5-.167-2.5-.167-5 0m5 1 4 1Zm4 1v1c3 .167 3 .167 6 0v-1c-3-.167-3-.167-6 0m85 0v1c4.34.453 8.27.487 12-2-4.125-.125-7.947.285-12 1m-79 1v1c1.497.101 3 .13 4.5.125l2.531.008L219 150v-1c-1.497-.101-3-.13-4.5-.125l-2.531-.008zm62 1v1c5.691.448 11.385-.081 17-1v-1c-5.691-.448-11.385.081-17 1m-41 0v1c1.6.163 3.206.253 4.813.316l3.007.127 3.18.12 3.18.13q3.91.16 7.82.307l-1-2c-2.137-.297-2.137-.297-4.691-.23l-2.862.005-3.01.037-3.021.002c-3.711.007-3.711.007-7.416.186m-39 2c-1.396 2.938-1.396 2.938-2 6h2v2h2c.298 3.476-.226 6.616-1 10 2 .5 2 .5 4 0 .333-3 .333-3 0-6l2 1c2.534.124 5.028.185 7.563.188l2.115.037c1.775.005 3.55-.102 5.322-.225l1-2 3-1v-3h-2v-3c-1.724-.469-1.724-.469-3.902-.406l-2.448-.067-2.588-.027a305 305 0 0 1-5.027-.094l-2.27-.021L198 155l-1-3c-2.456-.75-2.456-.75-5 0m36 5v2h-2v3h3v3c2.74.821 5.653.649 8.5.688l2.457.162c2.288.036 3.939.062 6.043-.85 1.058-2.256 1.123-3.729.861-6.199-.685-1.956-.685-1.956-2.582-2.49-2.465-.18-4.813-.103-7.279.064l-2.602.059c-3.222.094-3.222.094-6.398.566m35.176-1.047-2.738.047h-2.567c-2.045.814-2.045.814-2.458 2.826-.27 2.384-.305 3.937.587 6.174 2.925 1.192 5.833.836 8.938.625l2.576-.059c3.263-.106 3.263-.106 6.486-.566l1-2 3-1-1-3h-2v-3c-3.81-.773-7.941.018-11.824-.047M190 169v2h2v-2zm7 2 1 2 3-1zm2 6 2 2v-2zm67 6 1 2Zm2 3 1 3Zm-54 23 1 3Zm75 29 1 3Z"/><path d="M183 260c4.258 9.58 3.22 21.686 3 32l.055 2.645c-.086 3.583-.437 5.591-2.727 8.421-3.898 3.627-5.932 4.855-11.328 5.934v-22l-1.5 6.063c-1.825 6.48-4.729 10.274-10.5 13.937l-2.086 1.523L156 309c-1.205-1.921-1.895-3.45-2.625-5.562l-1.227-3.254L151 297q-.989-2.505-2-5l-.34 1.941c-1.546 6.783-3.963 9.861-9.601 13.88C137 309 137 309 135 309c-1.035-9.423.561-19.335 1.553-28.7l.302-3.253.302-2.943L137 272h-3c1.149-4.883 4.066-7.004 7.832-9.96C144 261 144 261 146.543 261.116c6.621 2.38 10.422 10.118 13.61 16C161 279 161 279 161 281h2l.313-2.5c1.108-7.723 6.555-12.635 12.406-17.25 2.682-1.47 4.268-1.727 7.281-1.25"/><path d="M233.286 313.63c11.462-3.652 27.245.079 37.714 5.37 3.236 4.58 3.468 9.617 3.375 15.062l.035 2.065c-.027 4.742-.906 7.83-3.41 11.873l-1.812 1-1.188 1c1.07 5.485 4.215 10.217 7 15-10.359 1.44-10.359 1.44-15 0-3.678-3.015-5.443-7.626-7-12v-2c-2.424-.847-4.486-1-7.05-1l-1.95 1c-.107 3.167.07 5.935.773 9.02.278 1.917.278 1.917-.773 4.98-4.223 1.808-8.023 2.685-12.476 1.166-2.869-2.194-3.139-5.291-3.738-8.705-.555-5.064-.788-10.096-.786-15.186 0-1.763-.026-3.525-.053-5.288-.034-19.984-.034-19.984 6.339-23.356M244 327c-1.848 3.543-2.18 6.171-1.516 10.094L244 340c4.706 1.37 10.277 1.61 15 0 1.816-2.177 2.275-3.68 2.25-6.5l.016-1.781c-.324-2.097-.909-3.092-2.266-4.719-4.723-1.61-10.294-1.37-15 0"/><path d="M300.918 315.17c2.043-.046 4.075-.165 6.115-.283 3.517-.111 6.61-.093 9.967 1.113 1.637 3.134 1.685 5.032 1.24 8.524C317 327 317 327 314.711 327.917c-3.258.223-6.388.15-9.648-.042a345 345 0 0 0-6.715-.195l-3.031-.165L293 328c-.854 2.452-1 4.42-1 7 2.044.295 2.044.295 4.602.238l2.925.05q3.063.024 6.125.015c5.566.114 9.222.4 13.338 4.334 3.471 4.682 2.385 11.822 2.01 17.363-.843 3.54-2.267 5.473-5.263 7.628-3.065 1.537-4.936 1.733-8.342 1.7l-3.233-.015-3.35-.063-3.29-.016q-3.218-.03-6.434-.142a92 92 0 0 0-6.118.02c-4.656-.004-4.656-.004-6.97-1.112-1.39-2.837-1.567-4.661-1.253-7.8L278 355c4.775-1.206 9.572-.565 14.438-.125 7.298.696 7.298.696 14.562.125 1.826-2.192 2.038-3.364 1.88-6.192-.698-1.973-.698-1.973-2.617-2.42-2.62-.073-5.152.073-7.763.3-6.726.457-11.517.678-17.5-2.688-4.385-5.375-3.598-12.384-3-19 .593-2.831 1.098-3.669 3-6 6.217-3.687 12.873-3.725 19.918-3.83"/><path d="M192.505 312.796c4.548-.776 8.898-.8 13.495-.546l2.888.12c5.802.352 11.944.743 17.112 3.63 2.084 3.303 2.223 4.855 1.516 8.67C226 327 226 327 223.484 327.763c-3.542.032-6.965-.2-10.484-.577-6.518-.726-6.518-.726-13-.187-1.508 2.299-1.512 3.53-1.082 6.225.918 1.973.918 1.973 3.008 2.259 2.714-.1 5.375-.36 8.074-.672 3.386-.235 6.654-.452 10 .188 2.031 2.418 2.031 2.418 2.5 5.5-.469 3.086-.469 3.086-2.5 5.5-4.274.784-8.596.3-12.88-.232-3.605-.375-3.605-.375-7.12.232-1.379 2.545-1.478 4.128-1.164 6.996L200 355c4.85 1.14 9.977.253 14.892-.26 1.806-.174 3.61-.289 5.42-.4l3.301-.332L226 355c1.064 3.529 1.091 6.478 0 10-2.64 2.058-5.484 2.31-8.75 2.7l-2.701.362c-2.852.312-5.683.493-8.549.625l-2.83.164c-6.103.182-12.176.025-17.17-3.851-7.278-11.195-5.992-28.701-3.41-41.204 1.798-6.064 3.715-9.179 9.915-11"/><path d="M243 260c3.244 1.254 5.016 2.897 7.164 5.59l1.711 2.127 1.75 2.22 1.773 2.21c4.599 5.753 4.599 5.753 6.602 8.853l.043-2.23c.438-8.965.438-8.965 3.207-11.707L268 265l2.688-2.312C273 261 273 261 275 261c.294 1.471.294 1.471.354 3.56l.078 2.36.045 2.584.048 2.64q.042 2.78.065 5.561c.035 2.823.122 5.64.21 8.461.228 13.123.228 13.123-2.485 17.638-3.073 2.79-6.148 4.648-10.315 5.196-1.93-1.809-1.93-1.809-3.875-4.437l-2.086-2.77L255 299l-3.5-4.625q-1.254-1.685-2.5-3.375l-.262 1.758c-1.269 7.055-3.535 10.954-9.363 15.117C237 309 237 309 234 309c-.18-2.33-.154-4.4-.004-6.719l.095-2.095c.101-2.23.222-4.457.346-6.686.12-2.2.236-4.4.337-6.6q.094-2.059.223-4.115c.203-4.344-.382-7.933-1.675-12.09C233 269 233 269 234.23 266.758l1.958-1.633 1.917-1.68L240 262l1.488-1.32z"/><path d="M332.342 312.796c4.437-.777 8.671-.8 13.158-.546l2.816.12c5.665.353 11.666.753 16.684 3.63 2.022 3.3 2.151 4.886 1.467 8.67C365 327 365 327 362.58 327.763c-3.396.032-6.71-.2-10.08-.577-6.268-.728-6.268-.728-12.5-.187-1.466 2.296-1.475 3.552-1.064 6.225.9 1.974.9 1.974 2.988 2.259 2.715-.1 5.377-.36 8.076-.672 3.386-.235 6.654-.452 10 .188 2.031 2.418 2.031 2.418 2.5 5.5-.469 3.086-.469 3.086-2.5 5.5-4.274.784-8.596.3-12.88-.232-3.605-.376-3.605-.376-7.12.232-1.356 2.545-1.445 4.14-1.133 6.996L340 355c4.68 1.143 9.574.255 14.319-.26 7.14-.714 7.14-.714 10.681.26 1.909 2.734 2.069 4.22 1.658 7.516-2.17 3.25-3.973 3.737-7.673 4.7-4.484.861-8.928 1.255-13.485 1.471l-2.759.164c-5.977.182-11.894.007-16.741-3.851-7.136-11.258-5.844-28.69-3.325-41.204 1.731-5.988 3.555-9.158 9.667-11"/><path fill="#330201" d="M200 115c2.5.125 2.5.125 5 1a70 70 0 0 1 1 4q1.99.544 4 1v3h2c0 3 0 3-1.285 4.316-3.113 2.183-5.727 3.847-9.465 4.684-3.433.704-3.433.704-5.187 3.625L195 139c14.733 5.58 30.39 6 46 6l1.938-2.562c.68-.805 1.36-1.61 2.062-2.438 2.063.125 2.063.125 4 1l3 1-.301 2.073L252 146c2.752.19 5.094.106 7.82-.16l2.456-.198q2.595-.215 5.19-.457c2.597-.242 5.196-.453 7.796-.66C289.83 143.383 289.83 143.383 304 140v-2l-1.937-.437L300 137c-1-3-1-3 0-6 2.5-.5 2.5-.5 5 0 .813 2.5.813 2.5 1 5l1.688-1.125c2.312-.875 2.312-.875 5.25-.562L315 136c-.45 3.213-1.678 6.054-3 9l-.969 2.262L310 149l-2.437.438L305 150l-1.437 2.5c-1.563 2.5-1.563 2.5-4.25 3.313a94 94 0 0 1-9.774.027L288 156v2h-2l-1-2c-2.132-.32-2.132-.32-4.562-.25l-2.504-.016L276 156v2h3l-1 4c-1.5-1.312-1.5-1.312-3-3v-3c-2.429-.06-2.429-.06-5.312.438-5.333.773-5.333.773-7.357-.43L261 155q6.857-.431 13.715-.854l4.658-.292q3.362-.21 6.725-.417l2.078-.132c3.271-.198 6.482-.3 9.76-.207L301 153c1.068-1.934 1.068-1.934 1-4l-3.072.93c-13.587 3.858-27.949 3.354-41.936 3.276-3.354-.018-6.708-.02-10.062-.02-33.96-.053-33.96-.053-47.868-3.186l-2.568-.54c-3.24-.689-6.348-1.411-9.494-2.46-.625-3.187-.625-3.187-.797-5.094-.177-2.146-.177-2.146-1.078-5.094L185 134c2.375-2.25 2.375-2.25 5-4l1-2c2.526-1.652 4.806-2.181 7.75-2.562L202 125v-1l-3-1c-1.312-1.937-1.312-1.937-2-4l2-2zm-5 31v1c2.5.167 2.5.167 5 0v-1c-2.5-.167-2.5-.167-5 0m5 1 4 1Zm4 1v1c3 .167 3 .167 6 0v-1c-3-.167-3-.167-6 0m85 0v1c4.34.453 8.27.487 12-2-4.125-.125-7.947.285-12 1m-79 1v1c1.497.101 3 .13 4.5.125l2.531.008L219 150v-1c-1.497-.101-3-.13-4.5-.125l-2.531-.008zm62 1v1c5.691.448 11.385-.081 17-1v-1c-5.691-.448-11.385.081-17 1m-41 0v1c1.6.163 3.206.253 4.813.316l3.007.127 3.18.12 3.18.13q3.91.16 7.82.307l-1-2c-2.137-.297-2.137-.297-4.691-.23l-2.862.005-3.01.037-3.021.002c-3.711.007-3.711.007-7.416.186"/><path d="M132 316c4.354-1.608 8.488-2.558 13.054-1.33 7.503 5.126 9.977 20.9 11.946 29.33v3h2c.684-1.82.684-1.82 1.188-4.25l.808-2.973c.566-2.08 1.093-4.16 1.583-6.26 3.143-13.179 3.143-13.179 6.421-17.517 4.841-2.43 9.932-.965 15 0l-.89 2.65-.592 1.77q-.667 1.995-1.337 3.99a485 485 0 0 0-3.555 11.015 380 380 0 0 1-3.678 11.233q-.77 2.307-1.461 4.64c-3.561 11.89-3.561 11.89-8.211 14.77-4.244 1.684-8.097 1.836-12.383.219-6.955-4.728-8.924-15.784-11.336-23.48-.927-2.903-1.937-5.778-2.94-8.657C132 317.89 132 317.89 132 316"/><path fill="#010101" d="M359 261.375c3 1.625 3 1.625 5 3.625 2.185 7.823 2.356 16.308 2.625 24.375l.18 2.845c.068 4.014.015 6.694-2.454 9.965-3.64 3.359-6.394 5.107-11.351 5.815l.282-1.668c1.45-8.177 1.45-8.177.718-16.332-3.422-1.668-5.44-1.133-9.11-.3-3.332 1.49-3.332 1.49-4.89 4.55q-.51 1.872-1 3.75c-3.348 5.28-8.961 10.02-15.14 11.52-1.923.105-1.923.105-4.86-.52-.387-1.84-.387-1.84 0-4 1.39-1.668 1.39-1.668 3.25-3.187l1.828-1.543C326 299 326 299 328.184 298.547L330 298c.846-1.949.82-3.367.738-5.477L330 291c-3.043-.695-5.923-.385-9 0a418 418 0 0 1 2.875-3.5l1.617-1.969L327 284h2c.105-1.476.13-2.958.125-4.437.535-6.747 4.04-10.146 8.875-14.563l1.734-1.672c5.647-4.786 12.578-4.656 19.266-1.953M342 270c-1.193 3.851-1.496 7.212 0 11 3.826.786 7.254-.057 11-1-1.162-5.842-1.162-5.842-5-10-3.135-1.169-3.135-1.169-6 0"/><path fill="#010101" d="M225 261.375c3 1.625 3 1.625 5 3.625 2.185 7.823 2.356 16.308 2.625 24.375l.18 2.845c.068 4.014.015 6.694-2.454 9.965-3.64 3.359-6.394 5.107-11.351 5.815l.282-1.668c1.45-8.177 1.45-8.177.718-16.332-3.422-1.668-5.44-1.133-9.11-.3-3.332 1.49-3.332 1.49-4.89 4.55q-.51 1.872-1 3.75c-3.348 5.28-8.961 10.02-15.14 11.52-1.923.105-1.923.105-4.86-.52-.387-1.84-.387-1.84 0-4 1.39-1.668 1.39-1.668 3.25-3.187l1.828-1.543C192 299 192 299 194.184 298.547L196 298c.846-1.949.82-3.367.738-5.477L196 291c-3.043-.695-5.923-.385-9 0a418 418 0 0 1 2.875-3.5l1.617-1.969L193 284h2c.105-1.476.13-2.958.125-4.437.535-6.747 4.04-10.146 8.875-14.563l1.734-1.672c5.647-4.786 12.578-4.656 19.266-1.953M208 270c-1.193 3.851-1.496 7.212 0 11 3.826.786 7.254-.057 11-1-1.162-5.842-1.162-5.842-5-10-3.135-1.169-3.135-1.169-6 0"/><path fill="#010101" d="M310 261c2.745 1.3 5.014 2.679 7 5-.333 3.554-3.75 5.736-6.367 7.95-1.95 1.254-3.317 1.82-5.633 2.05-1.965-.996-1.965-.996-3.937-2.437-2.509-1.673-3.94-2.539-6.938-3.125-2.227.343-2.227.343-3.219 2.144-1.195 3.189-1.367 6.302-1.531 9.668l-.117 1.969A599 599 0 0 0 289 289l1.879-1.785c4.772-4.173 8.593-6.768 15.113-6.566 7.807.637 7.807.637 10.899 2.476 2.55 4.31 2.14 10.216 1.57 15.077-1.026 4.002-4.026 6.117-7.2 8.478C309 308 309 308 306 309l-1-3-2.687 1.313c-3.754 1.794-7.335 2.07-11.438 2.125l-1.811.065c-3.262-.013-5.074-.509-7.869-2.218-5.09-5.299-4.716-11.457-4.684-18.41.215-6.953 1.439-11.825 6.489-16.875 16.344-13.78 16.344-13.78 27-11m-20 30c.846 3.809 1.397 5.57 4.625 7.875 3.568 1.457 7.627 2.306 11.375 1.125.626-3.197.46-5.081-1-8-4.806-1.55-10.008-1.087-15-1"/><path fill="#010101" d="m282 192 2 1c-.016 1.594-.016 1.594-.25 3.5-.152 1.85-.152 1.85.25 3.5 2.912 1.653 2.912 1.653 6 1 .4-3.198.4-3.198.113-5.434L290 194h1l-.25 2.5.25 2.5 2.563-.062L296 199c-.187 2.438-.187 2.438-.598 4.07-.475 2.282-.523 4.413-.527 6.743l-.008 2.332c-.07 1.87-.07 1.87 1.133 2.855.072 2.588-.004 5.162-.062 7.75-.197 2.22-.197 2.22 1.062 3.25.072 2.328-.004 4.64-.062 6.969-.17 2.027-.17 2.027 1.062 3.031.263 2.34.468 4.653.625 7l.156 1.984c.118 1.67.173 3.343.219 5.016-2.213 2.213-6.325 2.004-9.331 2.154-1.747-.091-1.747-.091-4.669-1.154-1.516-4.706-1.28-9.108-1.038-14.003.049-2.58-.393-4.974-.9-7.497-.273-2.059-.273-2.059-.062-3.5 2.938-.562 2.938-.562 6 0l-1-1-2.562.5L283 225c-.778-3.086-.782-5.915 0-9 2.5-.562 2.5-.562 5 0l-1-1-2.508.363L282 215c-.621-2.474-.835-4.306-.875-6.812l-.102-1.948c-.127-3.065 0-5.307.977-8.24.04-2 .044-4 0-6m7 46 1 3Z"/><path fill="#aa332f" d="M220 158c2.043-.613 2.043-.613 4 0 .203 2.77.13 5.13-.125 7.875l-.175 2.421c-.332 4.318-.795 8.61-1.333 12.907l-.308 2.5a249 249 0 0 1-.661 4.808c-.349 2.364-.349 2.364-.398 5.489h3c.943 3.118 1.38 5.134.047 8.168-1.413 3.821-1.468 7.413-1.61 11.457q-.09 2.27-.19 4.54l-.073 2.013C222 222 222 222 221 225c-1.594.328-1.594.328-3.5.25-.63-.015-1.258-.03-1.906-.047C214 225 214 225 213 224l-2.625.5L208 224c-.496-3.188-.233-6.014 1-9 3.063.063 3.063.063 6 1v-2l-2.977.344L209 214c-.497-2.781-.57-4.736-.375-7.5l.082-2.168c.071-1.779.179-3.556.293-5.332l1.875.813L213 200c1.701-3.391 2.379-6.638 2.852-10.379l.39-3.04.383-3.143.406-3.155c.79-6.122.79-6.122.969-12.283l-1 1c-2.991.275-5.997.232-9 .25l-2.562.063-2.438.015-2.25.028L199 169l-1-3 1.545-.06c2.298-.095 4.595-.205 6.893-.315l2.431-.094 2.315-.117 2.142-.095L215 165l1-2 3-1 .438-2.062c.185-.64.37-1.28.562-1.938m-6 51 1 3Z"/><path fill="#eb83a5" d="M193 149h2c0 3 0 3-1.937 5.063L191 156l-1 2h2v2h2c.832 2.722 1.143 4.485.375 7.25L194 169l3 1 1 2 3-1c2.756-.464 5.288-.781 8 0 .754 3.074 1.01 4.15 0 7-2.562 1.688-2.562 1.688-5 3 .066 2.183.066 2.183 1 4h-2v2l-1.863-.437-2.45-.563-2.425-.562c-2.369-.533-2.369-.533-5.262-.438-1.027-1.566-1.027-1.566-1.937-3.562-.949-1.909-.949-1.909-2.063-3.438-2.223-.257-2.223-.257-4 1l-1 2c-3-.187-3-.187-6-1-1-3-1-3-1-5 1.443-2.886 3.543-3.276 6.504-4.29L183 170v-2c.576-3.551 1.424-6.755 3-10h2v-2l-3-1c-.062-2.562-.062-2.562 1-5 3-.25 3-.25 6 0zm-3 20v2h2v-2zm9 8 2 2v-2z"/><path fill="#4f0202" d="M228 164v2h-3v3c2.172.469 2.172.469 4.941.388l3.267.029 3.57-.019q1.812.003 3.624.01 3.807.005 7.614-.017a909 909 0 0 1 9.78.01c2.497.012 4.994.008 7.491 0q1.804-.004 3.607.008c1.678.007 3.357-.006 5.035-.02l2.9-.008L279 169l1-3c4.07 4.07 3.26 18.67 3.46 24.145C283 192 283 192 281.07 193.32L279 194a63 63 0 0 1-3-2c-2.633.247-3.694.669-5.5 2.625C269 196 269 196 266.938 196c-2.727-1.407-2.951-3.18-3.938-6l-2-1c-.375-2-.375-2 0-4 2-.625 2-.625 4-1v-2c2.938-.75 2.938-.75 6-1l1 2-1 3h2l1 2 1-3 2.528-.285L280 184c1.095-4.583.654-8.604-1-13-3.703-2.2-7.638-2.028-11.84-2.008q-1.807-.043-3.613-.095c-2.53-.055-5.054-.06-7.584-.031-2.607.023-5.192-.032-7.796-.164-11.932-.85-11.932-.85-23.167 2.298-3.485 5.615-2.75 12.556-2.019 18.879L223 192l-2 2c-.262-6.752.103-13.35.813-20.062l.212-2.274.245-2.137.206-1.914C223 166 223 166 224.42 164.78 226 164 226 164 228 164m38 19 1 2Zm2 3 1 3Z"/><path fill="#ea95a3" d="M219 119c3.291.253 4.637.637 7 3v6h2v-3h2l1-3c2.875-.5 2.875-.5 6 0 2 2.25 2 2.25 3 5-.375 2.313-.375 2.313-2 4-1.703.14-1.703.14-3.625.063L231 131v3l1.438 1.313c2.28 2.461 2.562 4.379 2.562 7.687-2.187 1.625-2.187 1.625-5 2-2.312-1.625-2.312-1.625-4-4-.125-2.25-.125-2.25 0-4h-2l.625-1.812c.583-2.142.583-2.142-.379-3.77-1.555-1.77-2.518-1.901-4.809-2.293-1.87-.457-1.87-.457-3.437-1.125-1.125-2.562-1.125-2.562-1-5l3-1zm9 12 1 3Z"/><path fill="#030303" d="M211 202q2.156-.04 4.313-.062l2.425-.036C220 202 220 202 223 203c.355 4.523-.197 8.537-1 13l-.043 2.375c-.078 2.388-.145 4.374-.957 6.625-2.417.929-4.526.643-7 0l-1-1-2.625.5L208 224c-.496-3.188-.233-6.014 1-9 3.063.063 3.063.063 6 1v-2l-3.062.438L209 214c-.506-3.134-.169-6.055 1-9 2.07-.785 2.07-.785 4-1zm3 7 1 3Z"/><path fill="#fcdddd" d="M200 115c2.5.125 2.5.125 5 1a70 70 0 0 1 1 4q1.99.544 4 1v3h2c0 3 0 3-1.285 4.316-3.113 2.183-5.727 3.847-9.465 4.684-3.447.663-3.447.663-4.812 3.625-.475.784-.95 1.567-1.438 2.375-2.937.625-2.937.625-6 0-2.257-1.541-2.769-2.42-4-5 2.188-2.187 2.188-2.187 5-4l1-2c2.526-1.652 4.806-2.181 7.75-2.562L202 125v-1l-3-1c-1.312-1.937-1.312-1.937-2-4l2-2z"/><path fill="#a0302a" d="m193 148 2.195.402 2.93.536 2.883.527L204 150l2.7.5c3.705.562 7.36.846 11.1 1.047l2.34.126c9.91.485 19.824.55 29.744.567 3.282.01 6.563.041 9.845.072 14.314.07 28.135-1.057 42.271-3.312-.306 1.955-.306 1.955-1 4a40 40 0 0 1-7 1l-1.76.159c-12.355 1.08-24.769.995-37.158.971-3.313-.005-6.625 0-9.937.007-10.216.004-20.422-.09-30.63-.52l-2.48-.092c-11.957-.583-11.957-.583-17.035-2.525v-3z"/><path fill="#f9c2bf" d="M193 149h2c0 3 0 3-1.937 5.063L191 156l-1 2h2v2h2c-.523 2.763-1.109 5.326-2 8a90 90 0 0 1-4 2l-1 2-1 1-.762 1.883c-.923 2.236-1.798 4.169-3.238 6.117-3.187.188-3.187.188-6-1-1-3-1-3-1-5 1.443-2.886 3.543-3.276 6.504-4.29L183 170v-2c.576-3.551 1.424-6.755 3-10h2v-2l-3-1c-.062-2.562-.062-2.562 1-5 3-.25 3-.25 6 0z"/><path fill="#100507" d="m301 142 2 1Zm-3 1h3v2l-4-1zm-1 0-1 3 3-.062 3 .062v1c-2.18.396-4.339.722-6.535 1.008l-2.035.272q-2.145.283-4.29.56c-2.17.28-4.337.577-6.505.875l-4.17.543-1.945.271c-4.389.545-8.174.343-12.52-.529v-1a155 155 0 0 0-7-.281l-2.152-.056q-3.424-.088-6.848-.163-4.5-.101-9-.219l-2.121-.04A128 128 0 0 1 232 148v-1a64 64 0 0 1 4.355-.373l2.885-.172 3.162-.174 3.231-.19q4.279-.25 8.557-.492 5.978-.34 11.955-.69 3.182-.186 6.365-.364c5.202-.301 10.361-.698 15.532-1.345 2.998-.306 5.947-.264 8.958-.2"/><path fill="#c42e27" d="m286 164 1 2c1.749.23 1.749.23 3.816.09l2.315-.06q2.438-.093 4.875-.196l2.31-.057 2.14-.086L304 166v3c-1.7-.04-1.7-.04-4.043-.55-7.207-1.437-7.207-1.437-13.957.55-1.68 6.763.81 14.509 2.439 21.116.608 3.123 1.033 5.722.561 8.884-2.402.838-2.402.838-5 0-.87-2.621-1.28-4.692-1.574-7.402l-.29-2.28q-.295-2.393-.552-4.79c-.27-2.458-.6-4.904-.934-7.354q-.273-2.319-.537-4.639l-.311-2.238c-.195-2.062-.195-2.062.198-5.297 2.93-1.096 2.93-1.096 6-1"/><path fill="#251316" d="M245 140c2.063.125 2.063.125 4 1l3 1-.25 2.523L252 147c2.514.494 4.476.654 7 .625 2.391 0 4.612.113 7 .375v3c-2.13.253-3.98.29-6.11.207l-1.91-.04q-1.996-.044-3.991-.107c-1.87-.056-3.738-.092-5.608-.117-2.951-.043-5.9-.117-8.85-.205a386 386 0 0 0-3.583-.084c-7.465-.143-15.098-.328-21.948-3.654v-2c2.415-.148 2.415-.148 5.766-.02q1.818.046 3.636.088c1.921.056 3.84.12 5.76.2 1.848.072 3.693.113 5.541.15l3.364.118c3.876-.708 4.726-2.4 6.933-5.536"/><path fill="#010101" d="M298 236c.422 2.41.65 4.573.75 7l.129 1.984c.093 1.67.113 3.344.121 5.016-2.198 2.198-6.317 1.934-9.305 2.101-1.726-.074-1.726-.074-4.695-1.101-2.408-3.966-2.409-9.017-1.62-13.476.62-1.524.62-1.524 2.948-2.778 4.223-.356 7.647-.088 11.672 1.254m-9 2 1 3Z"/><path fill="#060204" d="M185 136c.534.182 1.067.364 1.617.55 2.457.83 4.919 1.642 7.383 2.45l2.402.797c6.448 2.048 12.91 3.226 19.598 4.203l-2 1v2c1.993.37 3.995.697 6 1a88 88 0 0 1 5 2c-2.231 1.116-3.54 1.246-6 1v-2c-2.095-.249-2.095-.249-4.715-.125-.997.015-1.994.03-3.021.047q-3.15.077-6.297.156c-13.088.2-13.088.2-17.967-2.078-1.066-2.387-1-4.423-1-7a77 77 0 0 0-1-4m10 10v1c2.5.167 2.5.167 5 0v-1c-2.5-.167-2.5-.167-5 0m5 1 4 1Z"/><path fill="#010101" d="M207 235c2.595-.665 3.985-.798 6.563-.562l1.834.147c1.74.267 1.74.267 4.603 1.415 1.404 3.764.778 7.126 0 11l-.18 2.336L219 251c-2.687.426-2.687.426-6 .313l-3.312-.075C207 251 207 251 206 250c-.133-1.855-.133-1.855-.125-4.187l-.008-2.293L206 241l.098-3.266zm4 8 1 3Z"/><path fill="#540c0f" d="M223.309 154.77C225 155 225 155 227 157c-.207 1.727-.207 1.727-.812 3.625l-.583 1.914L225 164h-1l.188-3-.188-3c-1.954-.917-1.954-.917-4 0a76 76 0 0 0-1 5c-1.562 1.25-1.562 1.25-3 2v1c-1.31.09-2.625.107-3.937.098l-2.461-.01-2.602-.025-2.602-.014Q201.2 166.03 198 166l1 2c1.81.313 1.81.313 3.965.266l2.424.007 2.548-.023 2.538.023 2.427-.007 2.234-.007c2.11-.102 2.11-.102 3.864-2.259-.468 7.196-1.106 14.345-2 21.5l-.251 2.03A367 367 0 0 1 216 195l-.402 2.918L215 200c-2.562.813-2.562.813-5 1l1-2h2c.557-2.377.557-2.377.816-5.363.125-1.115.25-2.23.377-3.377l.37-3.572c.246-2.31.5-4.618.753-6.926l.327-3.127C216 174 216 174 217 171l-1.82.127c-2.705.166-5.41.27-8.118.373l-2.865.203c-4.711.135-4.711.135-7.197-.703-1.252-2.668-1.226-5.096-1-8l3 1c2.53.376 5.075.553 7.625.75l2.102.207c2.21.205 2.21.205 5.273.043l1-3h3c-.342-2.97-.342-2.97-1-6 1.745-1.745 3.985-1.177 6.309-1.23"/><path fill="#fce5e2" d="M272 182c-.25 2.063-.25 2.063-1 4h2l1 2 1-3c3-1.187 3-1.187 6-1 1.141 2.615 1.405 5.184 1 8-1.414 1.32-1.414 1.32-3 2a187 187 0 0 1-3-2c-2.633.247-3.694.669-5.5 2.625C269 196 269 196 266.938 196c-2.727-1.407-2.951-3.18-3.938-6l-2-1c-.375-2-.375-2 0-4 2-.625 2-.625 4-1v-2c3.019-1.006 4.158-1.32 7 0m-6 1 1 2Zm2 3 1 3Z"/><path fill="#fa9dac" d="M232 193c5.714.714 5.714.714 7 2 .043 1.666.04 3.334 0 5-.033 2.087-.033 2.087.25 4.5L239 207c-1.875 1.125-1.875 1.125-4 2l-.937 1.688L233 212c-2.625.188-2.625.188-5-1-.64-2.716-.7-5.294 0-8l3-1c.328-1.87.328-1.87.125-4a81 81 0 0 1-.125-4z"/><path fill="#b82520" d="M276 164h2c.625 2.5.625 2.5 1 5q-10.56.106-21.122.155a1763 1763 0 0 0-9.807.071q-4.726.048-9.453.059-1.81.008-3.617.032c-1.681.022-3.363.023-5.044.024l-2.907.02L225 169v-3c1.928-.372 1.928-.372 4.594-.363l2.87.002 3.036.048 3.035-.01c5.492.042 5.492.042 7.465.323v2c2.286.324 2.286.324 5 .25l2.813.016L256 168v-2c1.836-.195 1.836-.195 4.375-.125l2.734.047 5.782.156 2.734.047 2.54.07L276 166z"/><path fill="#530a0a" d="M200 149c5.437-.435 10.95.04 16.375.438 7.071.514 14.149.838 21.232 1.113q1.878.073 3.754.154c6.333.27 12.379.413 18.639-.705 6.67-.399 12.623-.045 19 2v1a64 64 0 0 1-4.396.13l-2.918.009-3.21-.006-3.3.003q-3.489 0-6.977-.006c-3.496-.006-6.992 0-10.488.007-37.918.013-37.918.013-47.711-3.137z"/><path fill="#080607" d="M300 131c2.5-.5 2.5-.5 5 0 .813 2.5.813 2.5 1 5l1.688-1.125C310 134 310 134 312.875 134.5L315 136c-.187 2.864-.37 3.765-2 6-4.64 3.676-9.528 4.453-15.312 4.531L296 146c-.5-1.96-.5-1.96 0-4 1.75-.758 1.75-.758 4-1.125 2.183-.33 2.183-.33 4-.875v-2l-1.937-.437L300 137c-1-3-1-3 0-6m-2 12-1 2c2 .167 2 .167 4 0v-2z"/><path fill="#440403" d="m285 166 1 3c1.742.385 1.742.385 3.816.223l2.315-.057 2.432-.103q2.376-.09 4.753-.153l2.14-.09L303 169v2c-2.365.066-4.673-.138-7.031-.32L294 171c.03.663.062 1.325.094 2.008L294 175l-3.04-.07-2.96.07c-.273 2.302-.273 2.302.625 5.125 1.05 4.939 1.734 9.636 1.875 14.688l.127 1.904c.03 1.74.03 1.74-.627 4.283-3.031-.05-3.031-.05-6-1v-1l2.524.293L289 199c.317-2.55.317-2.55-.387-5.695l-.29-1.773c-.314-1.89-.661-3.773-1.01-5.657a988 988 0 0 1-.957-5.592c-.291-1.71-.6-3.417-.91-5.123-.438-3.101-.525-6.033-.446-9.16"/><path fill="#de6dad" d="m259.5 123.75 2.469-.078L264 124l1 3 3 1c1.125 2.375 1.125 2.375 1 5-2.08 2.114-4.058 2.848-7 3-3.525-1.378-6.533-3.106-9-6 .377-5.334 1.392-6.153 6.5-6.25"/><path fill="#020204" d="m282 192 2 1c-.016 1.594-.016 1.594-.25 3.5-.152 1.85-.152 1.85.25 3.5 2.912 1.653 2.912 1.653 6 1 .4-3.198.4-3.198.113-5.434L290 194h1l-.25 2.5.25 2.5c2.5.417 2.5.417 5 0l-1 3c-2.562.188-2.562.188-5 0l.688 2.25c.312 2.75.312 2.75-.875 4.938-1.885 1.884-3.242 3.066-5.813 3.812-2.077-2.28-2.382-4.5-2.687-7.5l-.262-2.344C281 201 281 201 282 198c.04-2 .044-4 0-6"/><path fill="#020202" d="M208 225c4.676-1.081 8.536-.748 13 1 1.548 2.616 1.57 4.035 1.176 7.027C221 235 221 235 218.606 235.63c-4.122-.006-7.687-.323-11.606-1.629-.636-2.517-.517-4.494-.191-7.062z"/><path fill="#ef689b" d="M240.625 215.625 244 216v3l2.375-.812L249 218c1.563 2.25 1.563 2.25 2 5-1.562 1.875-1.562 1.875-4 3-2.5-.375-2.5-.375-5-1l-2.062.625c-1.938.375-1.938.375-4.25-.812L234 223c.125-2 .125-2 1-4l.625-1.75c1.745-1.587 2.674-1.522 5-1.625"/><path fill="#f3b4b7" d="M245 127c2.5-.562 2.5-.562 5 0 1.625 2.863 2 4.702 2 8-2.162 1.956-2.97 2-6 2l-1 3c-1.594.18-1.594.18-3.5-.125l-1.906-.258L238 139l-1-3c1.938-1.187 1.938-1.187 4-2l-2-2 1.875-.25L243 131l.938-2.062c.35-.64.7-1.28 1.062-1.938"/><path fill="#f391aa" d="M185 162c3.737 2.888 3.737 2.888 5 5-1.036 2.532-2.076 4.076-4 6l-.762 1.883c-.923 2.236-1.798 4.169-3.238 6.117-3.187.188-3.187.188-6-1-1-3-1-3-1-5 1.443-2.886 3.543-3.276 6.504-4.29L183 170v-2c.824-4.824.824-4.824 2-6"/><path fill="#efcdc3" d="M200 115c2.5.125 2.5.125 5 1a70 70 0 0 1 1 4q1.99.544 4 1v3h2c0 3 0 3-1.187 4.25-2.611 1.08-4.17.63-6.813-.25-2-2.286-2-2.286-2-4l-3-1c-1.312-1.937-1.312-1.937-2-4l2-2z"/><path fill="#fcd3d2" d="M195 177v2l2.188-.75c2.812-.25 2.812-.25 5.625 1.5C205 182 205 182 205 185h-2v2l-1.863-.437-2.45-.563-2.425-.562c-2.369-.533-2.369-.533-5.262-.438-1.68-2.565-2-3.885-2-7 2.088-.766 3.779-1 6-1"/><path fill="#44100f" d="m279 166 2 1a78 78 0 0 1 1.125 6.938l.255 2.043c.623 5.3 1.16 10.69.62 16.019h-1a52 52 0 0 1-.754-3.832l-.4-2.42-.409-2.56-.42-2.526c-.533-3.275-1.017-6.337-1.017-9.662-2.14-.44-2.14-.44-4.865-.325l-3.216.01q-1.756.03-3.513.057-1.782.012-3.565.02c-3.137.017-6.273.052-9.41.09-5.021.06-10.043.093-15.065.126-1.762.014-3.524.036-5.285.058l-3.216.03-2.853.034L226 171v-1a79 79 0 0 1 4.865-.05l3.216.04 1.734.027q2.671.038 5.344.059c5.066.043 10.131.09 15.197.17 3.093.05 6.185.078 9.278.095q1.776.015 3.55.051c1.65.034 3.3.04 4.95.046l2.854.036L279 170c.405-2.019.405-2.019 0-4"/><path fill="#cb1c14" d="M220 166h2c.213 2.564.282 4.997.25 7.563l-.018 2.302c-.09 5.264-.42 10.47-1.044 15.697l-.212 1.966c-.246 1.788-.246 1.788-.976 4.472h-3c-.582-6.847.53-13.707 1.375-20.5l.383-3.36.39-3.171c.116-.955.23-1.91.35-2.893z"/><path fill="#b92018" d="m193 148 2.195.402 2.93.536 2.883.527L204 150l2.793.54c4.925.707 9.869.815 14.838.978l2.35.103 2.121.076c2.103.336 3.236 1.003 4.898 2.303q-5.28.075-10.56.11-1.788.015-3.577.04c-16.255.233-16.255.233-21.863-2.15v-3z"/><path fill="#030200" d="m301 142 2 1Zm-4 1-1 3 3-.062 3 .062v1c-3.968.758-7.993 1.184-12 1.688l-3.469.47-3.281.416-3.047.394L278 150v-2l2.313-.437c3.026-.634 3.621-1.407 5.687-3.563 3.548-1.394 7.245-1.072 11-1m1 0h3v2l-4-1z"/><path fill="#4a2a2e" d="m220 192 1 2h3c.875 2.813.875 2.813 1 6-1.125 1.875-1.125 1.875-3 3q-2.5.063-5 0a94 94 0 0 0-3 2c-2.125.5-2.125.5-4 0-.75-3-.75-3-1-6l1.563.563c3.632.652 5.864.536 9.437-.563.698-2.53.339-4.339 0-7"/><path fill="#f1bcbc" d="M219 119c2.438.063 2.438.063 5 1 1.438 2 1.438 2 2 4l-2 1 .313 2.063L224 129c-4.404.816-4.404.816-7 0-1.625-2.937-1.625-2.937-2-6l3-1z"/><path fill="#f8ccc2" d="M207 200c1.036 2.296 1.287 4.504 1 7-2.187 2.063-2.187 2.063-5 3-2.749-.864-3.955-1.955-6-4v-3h3l-1-3c3.225-1.075 4.736-1.088 8 0m-7 3 1 3 1-3z"/><path fill="#f076a4" d="M276 133c1.688 1.063 1.688 1.063 3 3 .35 2.86-.029 4.14-1 7-1.93.862-3.226.895-5.324.7-1.676-.7-1.676-.7-2.758-2.18-.72-1.978-1.068-3.417-.918-5.52 2.353-2.027 3.86-3 7-3"/><path fill="#d16b8a" d="M281.313 185.125c.904 2.467 1.021 4.268.687 6.875-1.312 1.438-1.312 1.438-3 2-1.375-.812-1.375-.812-3-2l-2.625-.25L271 191c-.812-3.062-.812-3.062-1-6 3 1 3 1 4 3l1-3c4.346-1.56 4.346-1.56 6.313.125"/><path fill="#280505" d="M218 166h1c-.16 7.18-1.118 14.378-2 21.5l-.251 2.03A370 370 0 0 1 216 195l-.402 2.918L215 200c-2.562.813-2.562.813-5 1l1-2h2c.557-2.377.557-2.377.816-5.363.125-1.115.25-2.23.377-3.377l.37-3.572c.246-2.31.5-4.618.753-6.926l.327-3.127C216 174 216 174 217 171l-3 .063-3-.063v-1l2.938-.937c3.172-.702 3.172-.702 4.062-3.063"/><path fill="#470403" d="M298 154h-2v2c-2.104.15-4.145-.008-6.25-.125L288 156v2h-2l-1-2c-2.132-.32-2.132-.32-4.562-.25l-2.504-.016L276 156v2h3l-1 4c-1.5-1.312-1.5-1.312-3-3v-3c-2.429-.06-2.429-.06-5.312.438-5.333.773-5.333.773-7.357-.43L261 155q6.938-.466 13.88-.91 2.36-.152 4.72-.31 3.395-.227 6.79-.44c.702-.05 1.403-.098 2.125-.148 3.355-.204 6.28-.288 9.485.808"/><path fill="#de699f" d="M205.063 170.5c2.175.008 2.175.008 3.937.5.676 3.043.886 4.173 0 7-2.14 1.834-3.406 1.983-6.187 2.063C201 179 201 179 200.493 177.403c-.294-1.828-.516-3.551-.493-5.403 1.52-1.52 2.955-1.351 5.063-1.5"/><path fill="#af241c" d="m286 164 1 2c1.749.23 1.749.23 3.816.09l2.315-.06q2.438-.093 4.875-.196l2.31-.057 2.14-.086L304 166v3c-1.62.309-1.62.309-3.867.223l-2.434-.057-2.574-.103a447 447 0 0 0-4.992-.153l-2.254-.09c-2.126.002-2.126.002-3.879 2.18l.188-2.437L284 166l-3-1c2.438-.625 2.438-.625 5-1"/><path fill="#8a1a17" d="m285 155 1 3h3l-1 3-3-1-.437 1.938L284 164c-2 .625-2 .625-4 0a150 150 0 0 1-1-6h-3v-2c3.104-1.552 5.543-1.251 9-1"/><path fill="#3a252b" d="M237 148c2.125-.129 4.216-.189 6.344-.203l1.95-.017q2.048-.014 4.096-.02c2.101-.01 4.2-.041 6.301-.072q1.983-.01 3.965-.016l1.922-.038c1.76.01 1.76.01 4.422.366v3c-2.126.305-3.933.374-6.062.313l-1.876-.028A130 130 0 0 1 237 149z"/><path fill="#b4221d" d="M302 149c-.062 1.938-.062 1.938-1 4-5.152 1.062-10.194 1.125-15.437 1.063l-2.217-.014q-2.673-.02-5.346-.049l1-2c1.902-.502 1.902-.502 4.367-.852l2.684-.39 2.824-.383 2.8-.406C298.488 149 298.488 149 302 149"/><path fill="#e4699b" d="M193 131v2l3 1c.063 2.563.063 2.563-1 5-2.812.625-2.812.625-6 0-2.625-2.312-2.625-2.312-4-5 2.24-2.706 4.533-3.62 8-3"/><path fill="#d01d17" d="m248 156 3-1.25 3 1.25c.929 3.453.929 6.547 0 10l-3 1.25-3-1.25c-.929-3.453-.929-6.547 0-10"/><path fill="#120b0e" d="m286 144-2 1-1 3c-1.666.04-3.334.043-5 0v2c-4.997 1.122-8.988.92-14 0 2.495-2.495 3.673-2.36 7.125-2.625l2.758-.227L276 147l-2.187-.184-2.813-.254c-.928-.08-1.856-.162-2.812-.246L266 146v-1c2.402-.245 4.779-.426 7.188-.562l2.04-.131c3.597-.221 7.167-.356 10.772-.307"/><path fill="#b7231e" d="M198 166c3.166-.086 6.333-.14 9.5-.187l2.746-.077 2.598-.029 2.412-.048L217 166v3c-1.636.388-1.636.388-3.902.398l-2.448.012-2.588-.035-2.576.035-4.72-.022L199 169z"/><path fill="#410606" d="m284 158 .813 1.938c1.074 2.393 1.074 2.393 4.187 3.062v2l1.723-.5c2.34-.514 4.326-.566 6.714-.5 3.333.044 6.315-.162 9.563-1-.875 5.75-.875 5.75-2 8h-2l1-5-1.513.048c-2.266.062-4.533.101-6.8.14l-2.38.076-2.295.029-2.11.048c-2.5-.448-3.377-1.346-4.902-3.341-.187-2.687-.187-2.687 0-5"/><path fill="#e590ab" d="M268 119c2.125.25 2.125.25 4 1v2l2.438-.812L277 121c1 2.375 1 2.375 1 5-3 1-3 1-4.937.063L271 125l-2.187.125L267 125c-.875-1.875-.875-1.875-1-4z"/><path fill="#670b09" d="M279 152v1c-3.698.225-7.404.186-11.108.185-1.884.002-3.767.02-5.65.04q-1.778.005-3.555.005l-3.3.013L253 153v-2c8.24-2.4 17.937-1.688 26 1"/><path fill="#190b0b" d="m282 192 2 1c-.016 1.594-.016 1.594-.25 3.5-.152 1.85-.152 1.85.25 3.5 2.912 1.653 2.912 1.653 6 1 .4-3.198.4-3.198.113-5.434L290 194h1l-.25 2.5.25 2.5c2.5.417 2.5.417 5 0l-1 3c-2.18.477-2.18.477-4.875.625-3.012.184-5.24.413-8.125 1.375-1-3-1-3 0-6 .04-2 .044-4 0-6"/><path fill="#faceca" d="M181 172c1.694 2.407 2 3.85 2 6.813L182 181c-3 0-3 0-6-1-1.033-3.1-1.178-4.056 0-7 3-1 3-1 5-1"/><path fill="#f0dbd7" d="M172 163h3v2l3 1c.938 1.938.938 1.938 1 4-2.501 1.787-3.896 2-7 2-1.25-1.25-1.25-1.25-2-3 .346-2.284.967-3.934 2-6"/><path fill="#141012" d="M185 136q2.222.676 4.438 1.375l2.496.773C194 139 194 139 195 141h-5l3 3h-2v3l3 1c-4.798-.087-4.798-.087-7-1-.875-3.312-.875-3.312-.93-5.113-.077-2.077-.515-3.89-1.07-5.887"/><path fill="#e9bab8" d="M300 131c2.5-.5 2.5-.5 5 0 .813 2.5.813 2.5 1 5l4-2c0 2 0 2-1 4-2.747.628-5.247.577-8 0-1.562-1.812-1.562-1.812-2-4z"/><path fill="#e7a2b0" d="M193 149h2c0 3.226-.114 3.599-2.187 5.813-1.364 1.292-1.364 1.292-2.813 2.187-2.875-.375-2.875-.375-5-2-.187-2.625-.187-2.625 1-5 3-.25 3-.25 6 0z"/><path fill="#f7c6cd" d="m257.164 123.707 2.461.106 2.477.082L264 124l-1 2h-3v2h-2l1 5c-2.437-.75-2.437-.75-5-2-.937-1.937-.937-1.937-1-4 1.055-2.413 1.504-2.933 4.164-3.293"/><path fill="#f4c8c2" d="M200 115c2.5.063 2.5.063 5 1 .813 2.563.813 2.563 1 5h-2l-1 2c-1.937.375-1.937.375-4 0-1.375-1.875-1.375-1.875-2-4l2-2z"/><path fill="#070102" d="m199 141-1 3c-2.062.688-2.062.688-4 1l2.75.875c2.572.89 4.863 1.84 7.25 3.125-9.259.414-9.259.414-13-2 .188-2.125.188-2.125 1-4h-2v-2c3.192-.975 5.9-1.43 9 0"/><path fill="#ef72a8" d="M240.688 215.438 244 216c.813 2.375.813 2.375 0 5-2.875 1.438-2.875 1.438-6 2l-2-2-2-1c1.74-3.274 3.05-4.334 6.688-4.562"/><path fill="#470b08" d="M275 162c2.563-.312 2.563-.312 5 0v2l5-1v2c-1.531.633-1.531.633-3.5 1.125l-1.969.508L278 167v-3h-2v2c-1.836.243-1.836.243-4.375.23l-2.734-.005-2.891-.037-2.89-.002c-5.186-.034-5.186-.034-7.11-.186v-1c1.3-.052 2.602-.034 3.902.008l2.448.05q2.582.067 5.164.157l2.45.043 2.27.067L274 165z"/><path fill="#ec6baa" d="m247 140.25 2 .75 3 1c-.027 2.035-.027 2.035-1 4-2.066.496-2.066.496-4.562.438l-2.504-.004L242 146c0-3 0-3 1.25-4.75 1.75-1.25 1.75-1.25 3.75-1"/><path fill="#e397ad" d="M235 201c2 .188 2 .188 4 1 .5 2.438.5 2.438 0 5-2.239 1.76-3.538 2.012-6.375 1.938-.536-.31-1.072-.62-1.625-.938.625-2.562.625-2.562 2-5h2z"/><path fill="#f7d6d7" d="M232 193c3 .125 3 .125 6 1 1.375 2.5 1.375 2.5 1 5-2.67 1.17-5.127 1.549-8 1-.562-2.875-.562-2.875 0-6z"/><path fill="#060102" d="M313 143c-.852 2.406-1.462 4.033-3 6-2.562.75-2.562.75-5 1l-2 2-1-5h3l1-3c4.443-2.278 4.443-2.278 7-1"/><path fill="#2e0302" d="M198 152c3.341-.234 6.701.543 10 1.063l2.89.373 2.735.412 2.54.375L218 155c.398 2.072.398 2.072 0 4h-2v-3c-2.542-.331-2.542-.331-5.625-.125-8.86.199-8.86.199-12.375-.875z"/><path fill="#af2824" d="m193 148 2.195.402c4.93.9 9.858 1.796 14.805 2.598-2 2-2 2-4.531 2.23l-2.969-.042-2.969-.02C197 153 197 153 195 152v-3z"/><path fill="#f5dad8" d="M279.813 110.188C281 112 281 112 280.938 114.125 280 116 280 116 278.063 116.875L276 117c-2-2-2-2-2.375-4.562L274 110c2.485-1.371 3.431-1.373 5.813.188"/><path fill="#5d0706" d="M246 154c6.2-.264 12.053.074 18 2v1l-4.5-.5c-2.445-.184-2.445-.184-4.5.5-.701 2.494-.504 4.465-.219 7.031L255 166h-1c.086-1.668.195-3.334.313-5 .122-2.698.122-2.698-.313-5-2.914-.667-2.914-.667-6 0z"/><path fill="#e76e9a" d="m188 169 1 3h3v2h-2l-.312 2.563L189 179c-2.625.063-2.625.063-5-1 .188-1.875.188-1.875 1-4v-3l2 1z"/><path fill="#ec97aa" d="M231 122c2.875-.5 2.875-.5 6 0 1.875 2.5 1.875 2.5 3 5h-2l-1 3h-2l-.937-1.937c-.938-2.41-.938-2.41-4.063-3.063z"/><path fill="#c71e17" d="m218 185 3 1c.18 2.723.18 2.723-.125 6.063l-.258 3.347L220 198h-3c-.825-3.96-.337-9.232 1-13"/><path fill="#f18ab4" d="M265.75 126.25 268 128l-1 3v-2c-3.436 1.175-5.098 1.927-7 5l-2-1c-.25-2.562-.25-2.562 0-5h2v-2c3-1 3-1 5.75.25"/><path fill="#873045" d="M288 170c3.063-.625 3.063-.625 6 0 .813 2.5.813 2.5 0 5-2.363.496-4.614.274-7 0 .125-2.5.125-2.5 1-5"/><path fill="#040002" d="m269.012 144.89 2.295.153 2.38.207 2.417.16c4.229.311 4.229.311 5.896.59v1c-4.5.99-8.801 1.125-13.375 1.063l-1.941-.014q-2.343-.02-4.684-.049c2.28-2.725 3.47-3.37 7.012-3.11"/><path fill="#f299b9" d="M228 125c2.364-.573 4.643-.608 7 0 .438 2.5.438 2.5 0 5l4-3v3c-3.25 1.054-4.715 1.095-8 0-1.687-1.437-1.687-1.437-3-3z"/><path fill="#ef93aa" d="M223 124h3c.188 2 .188 2 0 4l1.938-.75L230 127c.875 1.875.875 1.875 1 4-2 1-2 1-5.125 1L223 131c-.801-2.631-.459-4.196 0-7"/><path fill="#b93533" d="M287 187h1a84 84 0 0 1 .875 6l.43 3.375L289 199c-2.469.656-2.469.656-5 0-.523-1.969-.523-1.969-.375-4.5l.102-2.531L284 190h1q.56 2.99 1 6l.184-1.969.253-2.531.247-2.531z"/><path fill="#791917" d="M218 155c4.632-.421 4.632-.421 7 0l2 2c-.207 1.727-.207 1.727-.812 3.625l-.583 1.914L225 164h-1l.375-3-.375-3c-2.368-.607-4.598-.33-7 0z"/><path fill="#e896a2" d="M245 127c2.438-.5 2.438-.5 5 0 1.313 2 1.313 2 2 4h-3v2c-2.562-.75-2.562-.75-5-2-.125-2.125-.125-2.125 1-4"/><path fill="#cd689d" d="m247 207 3 1c.438 2.5.438 2.5 0 5-1.875.875-1.875.875-4 1l-2-1c.25-2.5.25-2.5 1-5z"/><path fill="#da99ab" d="M193 163h2l-.562 2.938c-.145 1.01-.29 2.02-.438 3.062l3 1c1.188 2.063 1.188 2.063 2 4-2.937.313-2.937.313-6 0-.75-2.437-.75-2.437-1-5l-2-1h2l.5-2.5z"/><path fill="#100706" d="M209 146c5.955.392 10.628 1.371 16 4-2.231 1.116-3.54 1.246-6 1v-2c-2.331-.108-4.605.073-6.934.223L210 149z"/><path fill="#f179a3" d="M281 184c.313 2.938.313 2.938 0 6-1.875 1-1.875 1-4 1-2-2-2-2-2.437-4.062L275 185c2.07-.637 3.827-1 6-1"/><path fill="#0f0305" d="M295 146v2c-1.56.442-1.56.442-3.719.703l-2.324.281-2.457.266-2.457.313-2.324.265-2.158.247L278 150v-2c5.27-2.564 11.234-2.698 17-2"/><path fill="#c17e88" d="M232 137h2c.938 2.875.938 2.875 1 6-2.25 1.563-2.25 1.563-5 2-1.812-1.375-1.812-1.375-3-3l1.938-.812c2.393-1.075 2.393-1.075 3.062-4.188"/><path fill="#2b2023" d="M211 202q2.156-.04 4.313-.062l2.425-.036C220 202 220 202 223 203l-1 3c-1.848.363-1.848.363-4.062.313l-2.223-.012L214 206v-2c-1.462-1.141-1.462-1.141-3-2"/><path fill="#f2b1ba" d="M269 186c1.987 2.517 2.754 4.8 3 8-1.25 1.313-1.25 1.313-3 2h-3v-3h2c.472-1.587.472-1.587.625-3.5l.227-1.969z"/><path fill="#e793a9" d="M240.563 134.813 243 135v2h3l-1 3c-1.594.18-1.594.18-3.5-.125l-1.906-.258L238 139l-1-3c1-1 1-1 3.563-1.187"/><path fill="#020202" d="M210 205c2-.625 2-.625 4 0v3l4-1c-2.353 2.724-4.625 3.814-8 5-.217-2.368-.398-4.647 0-7"/><path fill="#fbbfbf" d="M195 177v2l5-1c-.625 2-.625 2-2 4-3.062.375-3.062.375-6 0l-1-2h-2v-2c2.08-.693 3.807-1 6-1"/><path fill="#3e0809" d="M218 166h1a136 136 0 0 1-.437 6.5l-.159 1.879q-.196 2.31-.404 4.621l-2-1c.234-1.629.234-1.629.75-3.562L217 171c-2.958-.5-2.958-.5-6 0v-1l2.938-.937c3.172-.702 3.172-.702 4.062-3.063"/><path fill="#120c09" d="M310 135h2c-.062 2.938-.062 2.938-1 6-2.437 1-2.437 1-5 1l-2-2 1-2 4-1z"/><path fill="#bf2d25" d="M279 158c2.5.188 2.5.188 5 1 .563 2.563.563 2.563 0 5-1.937.688-1.937.688-4 0-.75-3-.75-3-1-6"/><path fill="#1d070b" d="m268.82 147.734 3.305.016 3.32-.016L278 148v2c-4.997 1.122-8.988.92-14 0 2-2 2-2 4.82-2.266"/><path fill="#faafb0" d="M221 123c2.25-.125 2.25-.125 4 1 .125 2.625.125 2.625-1 5-3.062-.187-3.062-.187-6-1 1.25-2.562 1.25-2.562 3-5"/><path fill="#fdd5cc" d="M209.125 123.688 212 124c0 3 0 3-1.187 4.25-2.57 1.063-4.216.592-6.813-.25 0-3.677 1.78-3.978 5.125-4.312"/><path fill="#df6892" d="m236 220 2 1v3c1.842.14 1.842.14 4-.312l2.25-.364L246 223c-5.09 2.727-5.09 2.727-8 3-2.25-1.312-2.25-1.312-4-3v-2z"/><path fill="#030302" d="M287.25 207.813 289 209c-1 2-1 2-2.937 3.438L284 213c-1.437-2.312-1.437-2.312-2-5 3-1 3-1 5.25-.187"/><path fill="#e795a0" d="M195.125 175.125 198 176l1 3c-2 .125-2 .125-4 0v-2c-3.013.336-3.013.336-6 1 1.984-2.756 2.631-3.015 6.125-2.875"/><path fill="#390405" d="m279 166 2 1c.195 2.066.195 2.066.125 4.563l-.055 2.503L281 176l-2-2v-3c-1.597-.33-1.597-.33-3.5-.125-1.165.07-2.333.119-3.5.125v-1c1.168.033 2.335.102 3.5.188 1.884.096 1.884.096 3.5-.188.583-2 .583-2 0-4"/><path fill="#2d0b15" d="M185 136q2.222.676 4.438 1.375l2.496.773C194 139 194 139 195 141c-2.72.285-5.295.47-8 0-1.5-2.5-1.5-2.5-2-5"/><path fill="#f36aaf" d="m207 173 2 2c-.125 2.188-.125 2.188-1 4-2.062 0-2.062 0-4-1-.437-2-.437-2 0-4z"/><path fill="#f9dcd6" d="M176 173h3c.938 2.938.938 2.938 1 6-1.875 1.063-1.875 1.063-4 1-1.022-3.066-1.204-4.09 0-7"/><path fill="#eda2b1" d="M195 149v3c-2.375 2.25-2.375 2.25-5 4l-2-1c1.275-3.592 3.015-6 7-6"/><path fill="#f9bdc7" d="M247 132v2h-2v3h-2a105 105 0 0 1-4-5c3.003-.965 5.026-1.168 8 0"/><path fill="#ac261f" d="M287 179c.125 2.5.125 2.5 0 5h-1a77 77 0 0 0-1.062 4.5l-.536 2.531L284 193c-.933-3.067-1.04-5.507-.687-8.687l.238-2.387L284 180c2-1 2-1 3-1"/><path fill="#260807" d="M307 163c-.317 2.915-.682 5.365-2 8h-2l1-5h-2v-2c3-1 3-1 5-1"/><path fill="#cc2f28" d="M220 158c2-.687 2-.687 4 0 .25 3 .25 3 0 6-2-.187-2-.187-4-1-.5-2.562-.5-2.562 0-5"/><path fill="#b65985" d="M270 140c1.332-.08 2.666-.139 4-.187l2.25-.106L278 140v3c-4.841.528-4.841.528-7 0z"/><path fill="#0b090a" d="m209 208 2 3 2-2 2 5c-3 .375-3 .375-6 0-.375-3-.375-3 0-6"/><path fill="#f5c7c3" d="M207 200c-.5 2.125-.5 2.125-2 4-2.562-.062-2.562-.062-5-1l-1-3c3.225-1.075 4.736-1.088 8 0"/><path fill="#30252a" d="M258 148c1.848-.3 1.848-.3 4.063-.312l2.222-.051L266 148v3c-1.969.074-1.969.074-4.5-.312l-2.531-.364L257 150z"/><path fill="#fad1df" d="M224 131h4c-.615 3.692-.615 3.692-2.562 5.25L224 137l.563-1.875c.674-2.167.674-2.167-.563-4.125m5 1 3 1-3 1z"/><path fill="#e1b8b7" d="M228 207c2.5.813 2.5.813 5 2v3c-2.5-.25-2.5-.25-5-1-.312-2.062-.312-2.062 0-4"/><path fill="#c87692" d="M222 194h2c.75 2.875.75 2.875 1 6l-2 2c-1.4-2.307-2.053-3.525-1.75-6.25z"/><path fill="#f2d7d2" d="m191 179 .25 2.063L192 183a70 70 0 0 0 4-1l1 3c-2.875.313-2.875.313-6 0-1.5-2.437-1.5-2.437-2-5z"/><path fill="#030102" d="M208 143c1.848.121 1.848.121 4.063.438l2.222.308L216 144c-2.509 2.509-4.551 3.266-8 4-.937-1.812-.937-1.812-1-4z"/><path fill="#ebc6c0" d="M200 115c2.563.188 2.563.188 5 1v3l-2 1c-2.187-1.312-2.187-1.312-4-3z"/><path fill="#f8e4e2" d="M170 166c2.5.75 2.5.75 5 2 .5 2.125.5 2.125 0 4h-3c-1.956-2.162-2-2.97-2-6"/><path fill="#fcb5d2" d="M191 128c1.938.563 1.938.563 4 2 1.25 2.625 1.25 2.625 2 5-2-.875-2-.875-4-2v-2l-3-1z"/><path fill="#db79a4" d="M288 128c2.063.063 2.063.063 4 1v3l-3 1-2-1c.125-2.125.125-2.125 1-4"/><path fill="#e7708f" d="M235 201c1.625.75 1.625.75 3 2-.625 2.125-.625 2.125-2 4h-3c-.312-2-.312-2 0-4h2z"/><path fill="#4e3536" d="M252 148c3-.375 3-.375 6 0v3c-3 .375-3 .375-6 0z"/><path fill="#0a0100" d="m310 148-2.375.875c-2.722.974-2.722.974-4.625 3.125-.812-2.437-.812-2.437-1-5 3.293-1.372 5.312-1.405 8 1"/><path fill="#100303" d="M290 194h1l-.25 2.5.25 2.5c2.5.417 2.5.417 5 0l-1 3c-2.562.125-2.562.125-5-1-.556-2.503-.284-4.399 0-7"/><path fill="#e399a5" d="M185 162h1c.098 1.531.098 1.531.063 3.5l-.028 1.969L186 169l-3-1c.444-4.444.444-4.444 2-6"/><path fill="#ee58a8" d="M265.125 128.563 267 129c.625 2.063.625 2.063 0 4-3-.25-3-.25-6-1 1.142-2.285 1.558-2.909 4.125-3.437"/><path fill="#030201" d="m290 202 5 1-2 4c-1.5-1.375-1.5-1.375-3-3z"/><path fill="#f1ccc6" d="M197 203h3c1.188 2.5 1.188 2.5 2 5h-3l-2-2z"/><path fill="#e8a5bc" d="M268 181c2.125.063 2.125.063 4 1l-1 3c-2.062.188-2.062.188-4 0 .25-2.062.25-2.062 1-4"/><path fill="#310e0e" d="m196 163 4 2-2 1c.328 2.064.328 2.064 1 4h-2c-.414-1.531-.414-1.531-.625-3.5l-.227-1.969z"/><path fill="#660a06" d="m279 162 1 2c2.56-.329 2.56-.329 5-1v2c-1.531.633-1.531.633-3.5 1.125l-1.969.508L278 167v-3l-2-1z"/><path fill="#e35596" d="M235 125c2.563.375 2.563.375 5 1l-2 1-1 3h-2l-1-3z"/><path fill="#020202" d="m304 260 3 1-4 4-1-3z"/><path fill="#050403" d="M313 136h2c-.25 2.563-.25 2.563-1 5-2.062-.187-2.062-.187-4-1 1.375-2 1.375-2 3-4"/><path fill="#cd648d" d="M189 136c3 .188 3 .188 6 1v2c-3 .313-3 .313-6 0z"/><path fill="#ecc4c3" d="m219 119 3 1-6 6-1-3 3-1z"/><path fill="#f6adb7" d="M232 199c1.629-.293 1.629-.293 3.563-.187L239 199c-2.523 1.992-4.856 2.49-8 3z"/><path fill="#cc7690" d="M280 184v3c-1.937.875-1.937.875-4 1l-1-3c2.438-.687 2.438-.687 5-1"/><path fill="#592e2a" d="M193 148c2.438.313 2.438.313 5 1l1 3-2 1-2-1v-3z"/><path fill="#090508" d="M195 143c2-.312 2-.312 4 0v2l3 1c-1.166.08-2.333.139-3.5.188l-1.969.105L195 146z"/><path fill="#f8d6ce" d="M201 126h2c-.312 2.563-.312 2.563-1 5l-3-1c.688-2.062.688-2.062 2-4"/><path fill="#f4a8ba" d="m263 125 1 2h-3a70 70 0 0 0-1 4h-2v-3h2v-2z"/><path d="m320 304 1 4h-3z"/><path fill="#010101" d="m137 266 2 1v2l-3-1zm-2 2 1 3-2-1z"/><path fill="#020202" d="m207 235 4 2q-1.47 1.53-3 3h-1a100 100 0 0 1 0-5"/><path fill="#cb7e91" d="M249 219c1.25 1.813 1.25 1.813 2 4-1.875 1.75-1.875 1.75-4 3v-3h2c.167-2 .167-2 0-4"/><path fill="#ea4dab" d="M245 208c2 .313 2 .313 4 1v3c-2 .438-2 .438-4 0-.25-2-.25-2 0-4"/><path fill="#0a0909" d="M220 206h3c.375 2 .375 2 0 4h-3l-1-3z"/><path fill="#d1a6a1" d="M206 201c1.063 1.25 1.063 1.25 2 3-.25 2.188-.25 2.188-1 4h-2c.023-1.531.023-1.531.375-3.5l.336-1.969z"/><path fill="#040607" d="M286 202c1.938-.187 1.938-.187 4 0l1 3-3 1c-1.187-1.937-1.187-1.937-2-4"/><path fill="#f9d7d5" d="M268 190v3h-2l-1 2c-.625-1.937-.625-1.937-1-4 2-1 2-1 4-1"/><path fill="#040403" d="M286 144c2.625.25 2.625.25 5 1v2c-1.531-.023-1.531-.023-3.5-.375l-1.969-.336L284 146z"/><path fill="#000100" d="M290 143c2.125.375 2.125.375 4 1-1.312 1.625-1.312 1.625-3 3-1.687-.812-1.687-.812-3-2z"/><path fill="#62514c" d="M310 135h2c-.125 2-.125 2-1 4-3.062.25-3.062.25-6 0l1.938-.875c2.214-.953 2.214-.953 3.062-3.125"/><path fill="#d889a4" d="M238 135h3c.688 2 .688 2 1 4-1.937.188-1.937.188-4 0l-1-3z"/><path fill="#f0d1cb" d="m208 120 2 1c.125 2.063.125 2.063 0 4-2.125-.812-2.125-.812-4-2 .625-1.687.625-1.687 2-3"/><path d="M209 220c2.063.313 2.063.313 4 1l-1 3c-1.5-.875-1.5-.875-3-2z"/><path fill="#eb87a4" d="M232 206c2.5.375 2.5.375 5 1v2c-2.5.313-2.5.313-5 0z"/><path fill="#e06a8f" d="M289 171c2-.375 2-.375 4 0v3c-2 .375-2 .375-4 0z"/><path fill="#f9dad8" d="M173 167c2.5.313 2.5.313 5 1v3l-3-1v-2z"/><path fill="#130c10" d="M203 145c2.5.375 2.5.375 5 1v2c-1.937.313-1.937.313-4 0z"/><path fill="#b79390" d="m309 134 1 3c-2.437.688-2.437.688-5 1v-2c1.938-1.312 1.938-1.312 4-2"/><path fill="#f4acba" d="m227 134 2 1v3l-3 1-1-3z"/><path fill="#f7dcd6" d="m204 128 4 2-5 2z"/><path fill="#efb0b3" d="M224 126v3c-3-.312-3-.312-6-1 3.75-2 3.75-2 6-2"/><path fill="#eec0bc" d="m201 205 4 3-4 2z"/><path fill="#f39fa9" d="M195 176c2 .375 2 .375 4 1v2c-2 .313-2 .313-4 0z"/><path fill="#e9bcb6" d="m193 160 1 3-2 2c-1.625-.875-1.625-.875-3-2z"/><path fill="#f0b7b7" d="M186 158h2c.313 2 .313 2 0 4h-3c.375-2 .375-2 1-4"/><path fill="#d863a4" d="M245 140h3l-1 4c-1.562-.875-1.562-.875-3-2z"/><path fill="#e36a98" d="M271 136c1.625 1.438 1.625 1.438 3 3-1.937.688-1.937.688-4 1l-1-3z"/><path fill="#fccbd1" d="M194 127c2.063.938 2.063.938 4 2-1.937 1.188-1.937 1.188-4 2l-1-3z"/><path fill="#fedcdc" d="m195 126 5 1-2 3z"/><path fill="#f7ddc1" d="M212 124v3l-3 1-1-3c2-1 2-1 4-1"/><path fill="#020202" d="M132 316h5c-.875 1.5-.875 1.5-2 3h-2z"/><path fill="#fdb9ba" d="M229 207c2.063.875 2.063.875 4 2l-1 2-3-1z"/><path fill="#010004" d="M285 202v3c-1.5 1.188-1.5 1.188-3 2 .375-1.937.375-1.937 1-4z"/><path fill="#911d25" d="m198 149 6 1-1.937.375L200 151l-1 2z"/><path fill="#1f0e09" d="m209 146 5 1-1 2h-3z"/><path fill="#020001" d="m308 143 1 3c-1.937.688-1.937.688-4 1l1-3z"/><path fill="#c3548d" d="M249 142h3l-1 4-2-1z"/><path fill="#fdbdc0" d="M243 131c2 .375 2 .375 4 1v2l-3 1c-.687-1.937-.687-1.937-1-4"/><path fill="#f7d1d1" d="M255 124c2.063.813 2.063.813 4 2l-5 1z"/><path fill="#010101" d="M363 362h2v3l-4-1z"/><path fill="#040404" d="m283 226 4 1-3 3z"/><path fill="#d76692" d="m236 220 2 2-2 2-2-1v-2z"/><path fill="#080204" d="m284 205 3 1-2 2-3-1z"/><path fill="#d88ba4" d="m243 204 4 1-1 2-3-1z"/><path fill="#b76c86" d="M221 198h3l-1 4z"/><path fill="#fce4e8" d="M232 193h3v2c-2 .625-2 .625-4 1z"/><path fill="#8a525a" d="m276 179 3 1v2l-4-1z"/><path fill="#facdc9" d="M190 164h2c.25 2 .25 2 0 4h-2l-1-3z"/><path fill="#0c0101" d="m307 163-1 4-1-2-2-1c2-1 2-1 4-1"/><path fill="#6d3138" d="M286 158h3l-1 3-3-1z"/><path fill="#0b0708" d="M307 146c1.625.938 1.625.938 3 2l-5 1v-2z"/><path fill="#d96994" d="M277 136h2l-1 4-2-1z"/><path fill="#eda9c1" d="M191 128c2.063.813 2.063.813 4 2l-5 1z"/><path fill="#c9a2a8" d="M259 202h3v3l-3-1z"/><path fill="#c86a99" d="M207 175h2l-1 4-2-2z"/><path fill="#c4858a" d="M193 149h2v3h-3z"/><path fill="#c85796" d="m242 143 3 1v2h-3z"/><path fill="#e550a1" d="M263 129h2l-1 3-3-1z"/><path fill="#e1829e" d="M229 128h2l-1 4c-1.062-1.437-1.062-1.437-2-3z"/><path fill="#d9b2be" d="m284 124 2 1-1 3-2-1z"/><path fill="#f591a0" d="m275 122 2 2-3 1-2-2z"/><path fill="#f5d5d1" d="m198 206 4 1-2 2z"/><path fill="#efc0c3" d="m206 185 3 1-1 2h-2z"/><path fill="#facdc9" d="m207 126 2 1v2h-3z"/><path fill="#d2738a" d="M247 223h2l-1 3-2-2z"/><path fill="#f098a4" d="m232 206 2 1v2l-3-1z"/><path fill="#cd8e9c" d="m255 202 2 2-3 1z"/><path fill="#cca1ad" d="M250 205h2l-1 2z"/><path fill="#150000" d="m287 141 3 1Z"/></svg>